<svg id="visual" viewBox="0 0 900 600" width="900" height="600" xmlns="http://www.w3.org/2000/svg" xmlns:xlink="http://www.w3.org/1999/xlink" version="1.1"><g transform="translate(437.4689556330904 277.35206272052835)"><path d="M101.2 -121.8C138.1 -89.6 179.9 -64.4 203.6 -22.2C227.4 20 233.2 79 213.4 132.5C193.6 186 148.1 233.9 96 244.6C43.9 255.3 -14.8 228.7 -70.6 204C-126.4 179.4 -179.2 156.7 -194.9 118.1C-210.5 79.5 -189 25 -172.6 -23.9C-156.2 -72.8 -144.9 -116.1 -117 -149.8C-89.1 -183.6 -44.6 -207.8 -6.2 -200.4C32.1 -193 64.3 -153.9 101.2 -121.8" fill="#6f2776"></path></g></svg>