<svg id="visual" viewBox="0 0 900 600" width="900" height="600" xmlns="http://www.w3.org/2000/svg" xmlns:xlink="http://www.w3.org/1999/xlink" version="1.1"><g transform="translate(453.3499668936588 302.70447930175555)"><path d="M173.5 -192.4C218.5 -169.1 244.2 -108.3 246 -50.4C247.7 7.4 225.6 62.5 194 107.2C162.5 151.9 121.4 186.4 76.7 196.4C32 206.4 -16.3 192 -61.2 173.4C-106 154.7 -147.4 131.9 -185.7 93.6C-224 55.4 -259.2 1.7 -251.8 -45C-244.3 -91.8 -194.1 -131.7 -145.1 -154.3C-96 -176.9 -48 -182.2 8.1 -191.9C64.3 -201.6 128.6 -215.7 173.5 -192.4" fill="#99619f"></path></g></svg>