<svg id="visual" viewBox="0 0 900 900" width="900" height="900" xmlns="http://www.w3.org/2000/svg" xmlns:xlink="http://www.w3.org/1999/xlink" version="1.1"><g transform="translate(457.7513038065653 458.2843695265623)"><path d="M229.4 -280.6C287.8 -224.4 319.2 -143.1 341.4 -54.7C363.6 33.8 376.7 129.4 339.8 199.1C303 268.7 216.3 312.4 130.6 332.1C44.8 351.8 -40 347.4 -126 325.2C-212 303 -299.1 263 -343 194.4C-386.8 125.9 -387.4 28.7 -359.2 -51.5C-331 -131.8 -274 -195.2 -209.3 -250.3C-144.6 -305.4 -72.3 -352.2 6.6 -360C85.5 -367.9 171 -336.8 229.4 -280.6" fill="#805eb4"></path></g></svg>