<svg id="visual" viewBox="0 0 900 600" width="900" height="600" xmlns="http://www.w3.org/2000/svg" xmlns:xlink="http://www.w3.org/1999/xlink" version="1.1"><g transform="translate(443.41697761285997 300.22334061170193)"><path d="M119.9 -128.3C167.3 -103 225.9 -76.6 245.7 -33.2C265.4 10.2 246.1 70.6 210 110C173.8 149.4 120.8 167.7 71.7 176.7C22.7 185.7 -22.3 185.4 -55.3 166.9C-88.2 148.4 -109.1 111.7 -147.1 72.2C-185.1 32.6 -240.3 -9.7 -240.4 -48.1C-240.5 -86.6 -185.5 -121 -136.2 -146C-87 -171 -43.5 -186.5 -3.6 -182.2C36.2 -177.8 72.4 -153.6 119.9 -128.3" fill="#854b8a"></path></g></svg>