<?xml version="1.0" encoding="UTF-8"?> <svg xmlns="http://www.w3.org/2000/svg" width="287.041" height="98.552" viewBox="0 0 287.041 98.552"><g id="Group_4444" data-name="Group 4444" transform="translate(1350.856 466.439) rotate(180)"><rect id="Rectangle_493" data-name="Rectangle 493" width="5.15" height="5.15" transform="translate(1063.815 367.886)" fill="#9b5b99"></rect><rect id="Rectangle_494" data-name="Rectangle 494" width="5.15" height="5.15" transform="translate(1063.815 399.02)" fill="#9b5b99"></rect><rect id="Rectangle_495" data-name="Rectangle 495" width="5.15" height="5.15" transform="translate(1063.815 430.154)" fill="#9b5b99"></rect><rect id="Rectangle_496" data-name="Rectangle 496" width="5.15" height="5.15" transform="translate(1063.815 461.289)" fill="#9b5b99"></rect><rect id="Rectangle_497" data-name="Rectangle 497" width="5.15" height="5.15" transform="translate(1092.004 367.886)" fill="#9b5b99"></rect><rect id="Rectangle_498" data-name="Rectangle 498" width="5.15" height="5.15" transform="translate(1092.004 399.02)" fill="#9b5b99"></rect><rect id="Rectangle_499" data-name="Rectangle 499" width="5.15" height="5.15" transform="translate(1092.004 430.154)" fill="#9b5b99"></rect><rect id="Rectangle_500" data-name="Rectangle 500" width="5.15" height="5.15" transform="translate(1092.004 461.289)" fill="#9b5b99"></rect><rect id="Rectangle_501" data-name="Rectangle 501" width="5.15" height="5.15" transform="translate(1120.193 367.886)" fill="#9b5b99"></rect><rect id="Rectangle_502" data-name="Rectangle 502" width="5.15" height="5.15" transform="translate(1120.193 399.02)" fill="#9b5b99"></rect><rect id="Rectangle_503" data-name="Rectangle 503" width="5.15" height="5.15" transform="translate(1120.193 430.154)" fill="#9b5b99"></rect><rect id="Rectangle_504" data-name="Rectangle 504" width="5.15" height="5.15" transform="translate(1120.193 461.289)" fill="#9b5b99"></rect><rect id="Rectangle_505" data-name="Rectangle 505" width="5.15" height="5.15" transform="translate(1148.382 367.886)" fill="#9b5b99"></rect><rect id="Rectangle_506" data-name="Rectangle 506" width="5.15" height="5.15" transform="translate(1148.382 399.02)" fill="#9b5b99"></rect><rect id="Rectangle_507" data-name="Rectangle 507" width="5.15" height="5.15" transform="translate(1148.382 430.154)" fill="#9b5b99"></rect><rect id="Rectangle_508" data-name="Rectangle 508" width="5.15" height="5.15" transform="translate(1148.382 461.289)" fill="#9b5b99"></rect><rect id="Rectangle_509" data-name="Rectangle 509" width="5.15" height="5.15" transform="translate(1176.571 367.886)" fill="#9b5b99"></rect><rect id="Rectangle_510" data-name="Rectangle 510" width="5.15" height="5.15" transform="translate(1176.571 399.02)" fill="#9b5b99"></rect><rect id="Rectangle_511" data-name="Rectangle 511" width="5.15" height="5.15" transform="translate(1176.571 430.154)" fill="#9b5b99"></rect><rect id="Rectangle_512" data-name="Rectangle 512" width="5.15" height="5.15" transform="translate(1176.571 461.289)" fill="#9b5b99"></rect><rect id="Rectangle_513" data-name="Rectangle 513" width="5.15" height="5.15" transform="translate(1204.76 367.886)" fill="#9b5b99"></rect><rect id="Rectangle_514" data-name="Rectangle 514" width="5.15" height="5.15" transform="translate(1204.76 399.02)" fill="#9b5b99"></rect><rect id="Rectangle_515" data-name="Rectangle 515" width="5.15" height="5.15" transform="translate(1204.76 430.154)" fill="#9b5b99"></rect><rect id="Rectangle_516" data-name="Rectangle 516" width="5.15" height="5.15" transform="translate(1204.76 461.289)" fill="#9b5b99"></rect><rect id="Rectangle_517" data-name="Rectangle 517" width="5.15" height="5.15" transform="translate(1232.95 367.886)" fill="#9b5b99"></rect><rect id="Rectangle_518" data-name="Rectangle 518" width="5.15" height="5.15" transform="translate(1232.95 399.02)" fill="#9b5b99"></rect><rect id="Rectangle_519" data-name="Rectangle 519" width="5.15" height="5.15" transform="translate(1232.95 430.154)" fill="#9b5b99"></rect><rect id="Rectangle_520" data-name="Rectangle 520" width="5.15" height="5.15" transform="translate(1232.95 461.289)" fill="#9b5b99"></rect><rect id="Rectangle_521" data-name="Rectangle 521" width="5.15" height="5.15" transform="translate(1261.139 367.886)" fill="#9b5b99"></rect><rect id="Rectangle_522" data-name="Rectangle 522" width="5.15" height="5.15" transform="translate(1261.139 399.02)" fill="#9b5b99"></rect><rect id="Rectangle_523" data-name="Rectangle 523" width="5.15" height="5.15" transform="translate(1261.139 430.154)" fill="#9b5b99"></rect><rect id="Rectangle_524" data-name="Rectangle 524" width="5.15" height="5.15" transform="translate(1261.139 461.289)" fill="#9b5b99"></rect><rect id="Rectangle_525" data-name="Rectangle 525" width="5.15" height="5.15" transform="translate(1289.328 367.886)" fill="#9b5b99"></rect><rect id="Rectangle_526" data-name="Rectangle 526" width="5.15" height="5.15" transform="translate(1289.328 399.02)" fill="#9b5b99"></rect><rect id="Rectangle_527" data-name="Rectangle 527" width="5.15" height="5.15" transform="translate(1289.328 430.154)" fill="#9b5b99"></rect><rect id="Rectangle_528" data-name="Rectangle 528" width="5.15" height="5.15" transform="translate(1289.328 461.289)" fill="#9b5b99"></rect><rect id="Rectangle_529" data-name="Rectangle 529" width="5.15" height="5.15" transform="translate(1317.517 367.886)" fill="#9b5b99"></rect><rect id="Rectangle_530" data-name="Rectangle 530" width="5.15" height="5.15" transform="translate(1317.517 399.02)" fill="#9b5b99"></rect><rect id="Rectangle_531" data-name="Rectangle 531" width="5.15" height="5.15" transform="translate(1317.517 430.154)" fill="#9b5b99"></rect><rect id="Rectangle_532" data-name="Rectangle 532" width="5.15" height="5.15" transform="translate(1317.517 461.289)" fill="#9b5b99"></rect><rect id="Rectangle_533" data-name="Rectangle 533" width="5.15" height="5.15" transform="translate(1345.706 367.886)" fill="#9b5b99"></rect><rect id="Rectangle_534" data-name="Rectangle 534" width="5.15" height="5.15" transform="translate(1345.706 399.02)" fill="#9b5b99"></rect><rect id="Rectangle_535" data-name="Rectangle 535" width="5.15" height="5.15" transform="translate(1345.706 430.154)" fill="#9b5b99"></rect><rect id="Rectangle_536" data-name="Rectangle 536" width="5.15" height="5.15" transform="translate(1345.706 461.289)" fill="#9b5b99"></rect></g></svg> 