<svg id="visual" viewBox="0 0 900 450" width="900" height="450" xmlns="http://www.w3.org/2000/svg" xmlns:xlink="http://www.w3.org/1999/xlink" version="1.1"><path d="M0 100L50 94C100 88 200 76 300 76.8C400 77.7 500 91.3 600 87.7C700 84 800 63 850 52.5L900 42L900 0L850 0C800 0 700 0 600 0C500 0 400 0 300 0C200 0 100 0 50 0L0 0Z" fill="#b7fcd0"></path><path d="M0 163L50 156.3C100 149.7 200 136.3 300 136.3C400 136.3 500 149.7 600 143.7C700 137.7 800 112.3 850 99.7L900 87L900 40L850 50.5C800 61 700 82 600 85.7C500 89.3 400 75.7 300 74.8C200 74 100 86 50 92L0 98Z" fill="#a5fbc5"></path><path d="M0 217L50 213.3C100 209.7 200 202.3 300 206.8C400 211.3 500 227.7 600 223.8C700 220 800 196 850 184L900 172L900 85L850 97.7C800 110.3 700 135.7 600 141.7C500 147.7 400 134.3 300 134.3C200 134.3 100 147.7 50 154.3L0 161Z" fill="#93fab9"></path><path d="M0 388L50 371.5C100 355 200 322 300 314.5C400 307 500 325 600 340.8C700 356.7 800 370.3 850 377.2L900 384L900 170L850 182C800 194 700 218 600 221.8C500 225.7 400 209.3 300 204.8C200 200.3 100 207.7 50 211.3L0 215Z" fill="#81f0a8"></path><path d="M0 451L50 451C100 451 200 451 300 451C400 451 500 451 600 451C700 451 800 451 850 451L900 451L900 382L850 375.2C800 368.3 700 354.7 600 338.8C500 323 400 305 300 312.5C200 320 100 353 50 369.5L0 386Z" fill="#6fe696"></path></svg>