<svg id="visual" viewBox="0 0 960 540" width="960" height="540" xmlns="http://www.w3.org/2000/svg" xmlns:xlink="http://www.w3.org/1999/xlink" version="1.1"><rect x="0" y="0" width="960" height="540" fill="#FFFFFF"></rect><defs><linearGradient id="grad1_0" x1="43.8%" y1="0%" x2="100%" y2="100%"><stop offset="14.444444444444446%" stop-color="#dcefff" stop-opacity="1"></stop><stop offset="85.55555555555554%" stop-color="#dcefff" stop-opacity="1"></stop></linearGradient></defs><defs><linearGradient id="grad1_1" x1="43.8%" y1="0%" x2="100%" y2="100%"><stop offset="14.444444444444446%" stop-color="#dcefff" stop-opacity="1"></stop><stop offset="85.55555555555554%" stop-color="#e8f4ff" stop-opacity="1"></stop></linearGradient></defs><defs><linearGradient id="grad1_2" x1="43.8%" y1="0%" x2="100%" y2="100%"><stop offset="14.444444444444446%" stop-color="#f4faff" stop-opacity="1"></stop><stop offset="85.55555555555554%" stop-color="#e8f4ff" stop-opacity="1"></stop></linearGradient></defs><defs><linearGradient id="grad1_3" x1="43.8%" y1="0%" x2="100%" y2="100%"><stop offset="14.444444444444446%" stop-color="#f4faff" stop-opacity="1"></stop><stop offset="85.55555555555554%" stop-color="#ffffff" stop-opacity="1"></stop></linearGradient></defs><defs><linearGradient id="grad2_0" x1="0%" y1="0%" x2="56.3%" y2="100%"><stop offset="14.444444444444446%" stop-color="#dcefff" stop-opacity="1"></stop><stop offset="85.55555555555554%" stop-color="#dcefff" stop-opacity="1"></stop></linearGradient></defs><defs><linearGradient id="grad2_1" x1="0%" y1="0%" x2="56.3%" y2="100%"><stop offset="14.444444444444446%" stop-color="#e8f4ff" stop-opacity="1"></stop><stop offset="85.55555555555554%" stop-color="#dcefff" stop-opacity="1"></stop></linearGradient></defs><defs><linearGradient id="grad2_2" x1="0%" y1="0%" x2="56.3%" y2="100%"><stop offset="14.444444444444446%" stop-color="#e8f4ff" stop-opacity="1"></stop><stop offset="85.55555555555554%" stop-color="#f4faff" stop-opacity="1"></stop></linearGradient></defs><defs><linearGradient id="grad2_3" x1="0%" y1="0%" x2="56.3%" y2="100%"><stop offset="14.444444444444446%" stop-color="#ffffff" stop-opacity="1"></stop><stop offset="85.55555555555554%" stop-color="#f4faff" stop-opacity="1"></stop></linearGradient></defs><g transform="translate(960, 0)"><path d="M0 486C-68.9 482.8 -137.8 479.6 -184.5 445.3C-231.1 411.1 -255.3 345.8 -301.2 301.2C-347.1 256.6 -414.6 232.7 -449 186C-483.4 139.2 -484.7 69.6 -486 0L0 0Z" fill="#f9fcff"></path><path d="M0 364.5C-51.7 362.1 -103.4 359.7 -138.3 334C-173.3 308.3 -191.5 259.4 -225.9 225.9C-260.3 192.5 -311 174.6 -336.8 139.5C-362.6 104.4 -363.5 52.2 -364.5 0L0 0Z" fill="#eef7ff"></path><path d="M0 243C-34.5 241.4 -68.9 239.8 -92.2 222.7C-115.5 205.5 -127.7 172.9 -150.6 150.6C-173.6 128.3 -207.3 116.4 -224.5 93C-241.7 69.6 -242.4 34.8 -243 0L0 0Z" fill="#e2f2ff"></path><path d="M0 121.5C-17.2 120.7 -34.5 119.9 -46.1 111.3C-57.8 102.8 -63.8 86.5 -75.3 75.3C-86.8 64.2 -103.7 58.2 -112.3 46.5C-120.9 34.8 -121.2 17.4 -121.5 0L0 0Z" fill="#dcefff"></path></g><g transform="translate(0, 540)"><path d="M0 -486C49.9 -449.2 99.8 -412.4 163.8 -395.4C227.8 -378.4 305.8 -381.2 343.7 -343.7C381.5 -306.1 379.3 -228.2 396.3 -164.2C413.4 -100.2 449.7 -50.1 486 0L0 0Z" fill="#f9fcff"></path><path d="M0 -364.5C37.4 -336.9 74.9 -309.3 122.8 -296.6C170.8 -283.8 229.3 -285.9 257.7 -257.7C286.2 -229.6 284.5 -171.1 297.3 -123.1C310 -75.1 337.3 -37.6 364.5 0L0 0Z" fill="#eef7ff"></path><path d="M0 -243C25 -224.6 49.9 -206.2 81.9 -197.7C113.9 -189.2 152.9 -190.6 171.8 -171.8C190.8 -153 189.7 -114.1 198.2 -82.1C206.7 -50.1 224.8 -25 243 0L0 0Z" fill="#e2f2ff"></path><path d="M0 -121.5C12.5 -112.3 25 -103.1 40.9 -98.9C56.9 -94.6 76.4 -95.3 85.9 -85.9C95.4 -76.5 94.8 -57 99.1 -41C103.3 -25 112.4 -12.5 121.5 0L0 0Z" fill="#dcefff"></path></g></svg>