<svg id="visual" viewBox="0 0 960 540" width="960" height="540" xmlns="http://www.w3.org/2000/svg" xmlns:xlink="http://www.w3.org/1999/xlink" version="1.1"><path d="M0 222L87 212L175 233L262 163L349 136L436 131L524 228L611 222L698 87L785 77L873 77L960 82L960 0L873 0L785 0L698 0L611 0L524 0L436 0L349 0L262 0L175 0L87 0L0 0Z" fill="#00cc8e"></path><path d="M0 320L87 255L175 282L262 255L349 233L436 185L524 314L611 260L698 179L785 131L873 120L960 141L960 80L873 75L785 75L698 85L611 220L524 226L436 129L349 134L262 161L175 231L87 210L0 220Z" fill="#00c090"></path><path d="M0 406L87 352L175 384L262 357L349 374L436 390L524 449L611 379L698 401L785 357L873 320L960 336L960 139L873 118L785 129L698 177L611 258L524 312L436 183L349 231L262 253L175 280L87 253L0 318Z" fill="#00b390"></path><path d="M0 503L87 492L175 476L262 449L349 476L436 492L524 498L611 465L698 487L785 449L873 471L960 482L960 334L873 318L785 355L698 399L611 377L524 447L436 388L349 372L262 355L175 382L87 350L0 404Z" fill="#03a78e"></path><path d="M0 541L87 541L175 541L262 541L349 541L436 541L524 541L611 541L698 541L785 541L873 541L960 541L960 480L873 469L785 447L698 485L611 463L524 496L436 490L349 474L262 447L175 474L87 490L0 501Z" fill="#139a8a"></path></svg>